<svg xmlns="http://www.w3.org/2000/svg" width="60" height="60" viewBox="0 0 60 60">
  <g id="Groupe_3" data-name="Groupe 3" transform="translate(-1509.462 -2707.421)">
    <path id="Tracé_7" data-name="Tracé 7" d="M1544.3,2767.031c-.25.041-.5.078-.753.113.252-.035.5-.072.753-.113Z" fill="#efba46"/>
    <path id="Tracé_8" data-name="Tracé 8" d="M1544.9,2766.928c-.119.022-.239.042-.358.063.119-.021.239-.041.358-.063Z" fill="#efba46"/>
    <path id="Tracé_9" data-name="Tracé 9" d="M1542.876,2767.227c-.292.033-.587.062-.882.087.295-.025.59-.054.882-.087Z" fill="#efba46"/>
    <path id="Tracé_10" data-name="Tracé 10" d="M1543.453,2767.156c-.141.019-.283.037-.424.053.141-.016.283-.034.424-.053Z" fill="#efba46"/>
    <path id="Tracé_11" data-name="Tracé 11" d="M1545.716,2766.766l-.317.067.317-.067Z" fill="#efba46"/>
    <path id="Tracé_12" data-name="Tracé 12" d="M1547.743,2766.263l-.256.071.256-.071Z" fill="#efba46"/>
    <path id="Tracé_13" data-name="Tracé 13" d="M1547.13,2766.43l-.279.073.279-.073Z" fill="#efba46"/>
    <path id="Tracé_14" data-name="Tracé 14" d="M1546.328,2766.631c-.1.023-.2.044-.3.066.1-.022.2-.043.3-.066Z" fill="#efba46"/>
    <path id="Tracé_15" data-name="Tracé 15" d="M1541.984,2767.315q-.235.019-.474.036.238-.016.474-.036Z" fill="#efba46"/>
    <path id="Tracé_16" data-name="Tracé 16" d="M1569.462,2737.421a30,30,0,1,0-30,30c.176,0,.351,0,.527-.006v-23.354h-6.445v-7.512h6.445v-5.527c0-6.411,3.914-9.9,9.632-9.9a52.738,52.738,0,0,1,5.778.3v6.7h-3.943c-3.111,0-3.713,1.479-3.713,3.648v4.784h7.438l-.969,7.512h-6.469v22.2a30.016,30.016,0,0,0,21.719-28.841Z" fill="#efba46"/>
    <path id="Tracé_17" data-name="Tracé 17" d="M1541.444,2767.355c-.312.02-.626.036-.94.046.314-.01.628-.026.94-.046Z" fill="#efba46"/>
    <path id="Tracé_18" data-name="Tracé 18" d="M1540.488,2767.4c-.166.006-.332.01-.5.013.167,0,.333-.007.5-.013Z" fill="#efba46"/>
  </g>
</svg>
