<svg xmlns="http://www.w3.org/2000/svg" width="60" height="60" viewBox="0 0 60 60">
  <g id="Groupe_4" data-name="Groupe 4" transform="translate(-1590.788 -2707.421)">
    <path id="Tracé_19" data-name="Tracé 19" d="M1626.53,2737.421a5.742,5.742,0,1,1-5.742-5.742,5.742,5.742,0,0,1,5.742,5.742Z" fill="#efba46"/>
    <path id="Tracé_20" data-name="Tracé 20" d="M1629.984,2730.293a2.067,2.067,0,1,1,2.067-2.067,2.068,2.068,0,0,1-2.067,2.067Zm-9.2,15.974a8.846,8.846,0,1,1,8.846-8.846,8.846,8.846,0,0,1-8.846,8.846Zm13.429-19.005a5.711,5.711,0,0,0-3.269-3.27,9.555,9.555,0,0,0-3.2-.592c-1.817-.083-2.361-.1-6.961-.1s-5.145.017-6.961.1a9.559,9.559,0,0,0-3.2.593,5.708,5.708,0,0,0-3.27,3.27,9.515,9.515,0,0,0-.593,3.2c-.083,1.816-.1,2.361-.1,6.961s.018,5.144.1,6.961a9.5,9.5,0,0,0,.593,3.2,5.7,5.7,0,0,0,3.269,3.27,9.521,9.521,0,0,0,3.2.593c1.816.083,2.361.1,6.961.1s5.145-.017,6.961-.1a9.528,9.528,0,0,0,3.2-.593,5.708,5.708,0,0,0,3.269-3.27,9.528,9.528,0,0,0,.593-3.2c.083-1.817.1-2.362.1-6.961s-.018-5.145-.1-6.961a9.515,9.515,0,0,0-.593-3.2Z" fill="#efba46"/>
    <path id="Tracé_21" data-name="Tracé 21" d="M1637.911,2744.524a12.65,12.65,0,0,1-.8,4.181,8.8,8.8,0,0,1-5.038,5.038,12.642,12.642,0,0,1-4.181.8c-1.837.084-2.424.1-7.1.1s-5.266-.02-7.1-.1a12.642,12.642,0,0,1-4.181-.8,8.8,8.8,0,0,1-5.038-5.038,12.618,12.618,0,0,1-.8-4.181c-.085-1.837-.1-2.424-.1-7.1s.019-5.265.1-7.1a12.641,12.641,0,0,1,.8-4.181,8.815,8.815,0,0,1,5.038-5.039,12.676,12.676,0,0,1,4.182-.8c1.837-.084,2.424-.1,7.1-.1s5.265.02,7.1.1a12.677,12.677,0,0,1,4.182.8,8.814,8.814,0,0,1,5.038,5.039,12.638,12.638,0,0,1,.8,4.181c.084,1.837.1,2.424.1,7.1s-.02,5.266-.1,7.1Zm-17.123-37.1a30,30,0,1,0,30,30,30,30,0,0,0-30-30Z" fill="#efba46"/>
  </g>
</svg>
